<?xml version="1.0"?>
<svg width="640" height="480" xmlns="http://www.w3.org/2000/svg" xmlns:svg="http://www.w3.org/2000/svg">
 <!-- Created with SVG-edit - https://github.com/SVG-Edit/svgedit-->
 <g class="layer">
  <title>Layer 1</title>
  <path d="m22.2,184c2.35,-0.58 2.76,-0.72 3.71,-1.13c0.55,-0.23 1.16,-0.51 1.81,-0.82c1.49,-0.71 2.31,-1.14 3.19,-1.59c0.92,-0.48 1.86,-0.98 2.82,-1.5c0.96,-0.53 1.92,-1.06 2.86,-1.59c1.79,-1.02 2.61,-1.52 3.39,-2c0.75,-0.46 1.47,-0.91 2.16,-1.35c0.68,-0.43 1.35,-0.87 2.03,-1.3c1.37,-0.88 2.08,-1.34 2.81,-1.8c0.74,-0.48 1.5,-0.96 2.27,-1.46c0.78,-0.5 1.57,-1.02 2.36,-1.54c1.6,-1.07 2.4,-1.63 3.2,-2.2c0.81,-0.57 1.62,-1.14 2.44,-1.72c0.83,-0.58 1.67,-1.16 2.53,-1.72c1.75,-1.14 2.67,-1.67 3.59,-2.2c0.93,-0.53 1.86,-1.05 2.77,-1.56c0.9,-0.51 1.79,-1 2.64,-1.52c1.6,-0.98 2.32,-1.49 3,-2c0.64,-0.49 1.24,-0.98 1.8,-1.48c0.54,-0.48 1.05,-0.96 1.53,-1.44c0.93,-0.91 1.37,-1.36 1.81,-1.8c0.43,-0.43 0.87,-0.86 1.3,-1.28c0.44,-0.43 0.89,-0.86 1.35,-1.28c0.96,-0.89 1.47,-1.34 2,-1.8c0.54,-0.47 1.1,-0.95 1.67,-1.44c0.58,-0.49 1.17,-0.98 1.76,-1.48c1.2,-1 1.8,-1.5 2.39,-2c0.59,-0.5 1.18,-0.99 1.76,-1.48c0.57,-0.48 1.13,-0.96 1.67,-1.44c1.04,-0.91 1.53,-1.36 2,-1.8c0.45,-0.42 0.89,-0.83 1.31,-1.23c0.4,-0.38 0.79,-0.75 1.17,-1.09c0.72,-0.64 1.06,-0.93 1.4,-1.2c0.33,-0.26 0.65,-0.49 0.96,-0.71c0.31,-0.21 1.52,-0.91 2.12,-1.18c0.89,-0.4 1.52,-0.6 2.7,-1.21c0.61,-0.32 1.2,-0.69 1.8,-1.08c1.21,-0.79 1.81,-1.2 2.42,-1.62c0.64,-0.43 1.65,-1.14 2.36,-1.66c0.37,-0.27 1.14,-0.83 1.92,-1.42c0.4,-0.3 1.6,-1.2 2.4,-1.8c0.4,-0.3 1.2,-0.9 1.6,-1.2c1.2,-0.9 2,-1.5 2.39,-1.79c0.77,-0.57 1.48,-1.11 2.48,-1.78c0.56,-0.37 1.26,-0.86 2.33,-1.17c0.6,-0.17 1.53,-0.22 2.64,-0.61c0.68,-0.24 1.4,-0.59 2.17,-0.97c0.39,-0.19 1.59,-0.79 2.38,-1.19c0.75,-0.38 1.46,-0.71 2.55,-1.38c0.59,-0.37 1.22,-0.84 2.27,-1.33c0.74,-0.34 1.3,-0.5 2.18,-1.34c0.61,-0.59 1.3,-1.15 2.16,-1.4c0.92,-0.27 1.61,-0.72 2.42,-0.87c0.72,-0.13 1.91,-0.23 2.57,-0.51c1,-0.42 1.68,-0.56 2.66,-0.57c0.83,-0.01 1.57,0 2.86,0c0.8,0 1.23,0 2.13,0c0.92,0 2.28,0 2.73,0c0.91,0.01 1.88,0.03 2.42,0.06c0.57,0.03 2.59,0.16 3.37,0.23c0.81,0.07 1.65,0.15 2.5,0.24c0.85,0.09 1.68,0.18 2.5,0.28c1.51,0.19 2.18,0.29 2.8,0.4c0.58,0.1 1.65,0.34 2.15,0.5c1.01,0.32 2.06,0.79 2.62,1.06c0.6,0.29 1.87,0.94 2.56,1.3c0.71,0.37 1.46,0.76 2.24,1.14c1.63,0.81 2.5,1.2 3.39,1.6c0.9,0.4 1.82,0.8 2.75,1.2c0.92,0.4 1.84,0.79 2.75,1.2c1.76,0.79 2.59,1.19 3.4,1.61c0.79,0.41 1.57,0.83 2.33,1.28c0.77,0.45 1.53,0.93 2.29,1.46c1.59,1.1 2.38,1.74 3.2,2.39c0.84,0.67 1.67,1.36 2.51,2.06c0.84,0.7 1.65,1.39 2.47,2.06c1.55,1.28 2.29,1.85 3,2.4c0.69,0.52 1.37,1.02 2.03,1.5c0.66,0.47 1.32,0.94 1.99,1.41c1.37,0.97 2.08,1.48 2.8,2c0.74,0.53 1.48,1.07 2.23,1.61c0.75,0.54 1.49,1.06 2.23,1.57c1.43,0.97 2.12,1.39 2.8,1.8c0.66,0.4 1.32,0.77 1.97,1.13c0.65,0.36 1.31,0.72 1.97,1.09c1.37,0.76 2.08,1.17 2.8,1.6c0.74,0.43 1.48,0.88 2.23,1.31c0.75,0.44 1.49,0.87 2.23,1.27c1.43,0.77 2.12,1.09 2.8,1.4c0.65,0.3 1.3,0.57 1.93,0.83c0.62,0.26 1.24,0.51 1.84,0.79c1.21,0.55 1.81,0.87 2.41,1.21c0.62,0.34 1.26,0.72 1.92,1.11c0.69,0.41 1.42,0.84 2.19,1.29c1.68,0.97 2.61,1.47 3.59,1.99c1,0.53 2.03,1.07 3.06,1.59c1.02,0.52 2.01,1.02 2.97,1.5c1.74,0.87 2.5,1.25 3.19,1.6c0.63,0.32 1.21,0.61 1.76,0.9c0.51,0.27 1.01,0.53 1.49,0.81c0.98,0.56 1.48,0.88 2.01,1.2c0.54,0.34 1.09,0.69 1.65,1.05c0.56,0.36 1.13,0.73 1.7,1.1c1.11,0.72 1.66,1.06 2.2,1.4c0.53,0.33 1.05,0.66 1.56,0.98c0.51,0.32 1.02,0.65 1.52,0.98c1.01,0.67 1.5,1.03 2,1.4c0.5,0.37 1,0.75 1.5,1.14c0.5,0.39 1,0.78 1.5,1.18c1,0.8 1.5,1.2 2,1.59c0.5,0.39 0.99,0.78 1.48,1.14c0.48,0.36 0.96,0.7 1.44,1.01c0.91,0.58 1.36,0.8 1.8,1c0.43,0.2 1.27,0.53 2.08,0.85c0.4,0.16 1.61,0.72 2.4,1.2c0.78,0.48 1.49,1 2.48,1.66c0.56,0.37 1.24,0.84 2.17,1.17c0.81,0.29 1.72,0.59 2.42,1.03c0.51,0.31 1.36,1.05 2.23,1.6c0.8,0.5 1.52,0.53 2.5,0.54c0.82,0.01 1.69,0.12 2.58,0.5c0.91,0.39 1.49,0.41 2.48,0.52c0.72,0.08 1.8,0.28 2.48,0.55c1.02,0.41 1.68,0.82 2.82,1.26c0.4,0.16 1.27,0.42 2.17,0.63c0.89,0.2 2.17,0.39 2.93,0.46c0.69,0.06 1.61,0.08 2.65,0.09c0.7,0 1.61,0 2.61,0c0.84,0 1.42,0 2.61,0c0.89,0 1.74,0.02 2.78,0c0.71,-0.01 1.45,-0.06 2.56,-0.44c0.68,-0.23 1.36,-0.57 2.05,-0.91c1.27,-0.62 1.78,-0.94 2.56,-1.2c1.06,-0.36 1.72,-0.38 2.79,-0.43c0.77,-0.03 1.96,-0.02 2.76,-0.02c0.8,0 1.6,0 2.4,0c1.2,0 2,0.01 2.8,-0.02c0.8,-0.03 2,-0.12 2.8,-0.27c0.79,-0.14 1.54,-0.32 2.23,-0.6c0.95,-0.38 1.7,-0.94 2.36,-1.46c0.81,-0.63 1.43,-1.02 2.07,-1.46c0.99,-0.7 1.5,-1.19 2.04,-1.71c0.55,-0.53 1.57,-1.57 2.06,-2.02c0.48,-0.45 1.28,-1.09 2.31,-1.66c0.79,-0.43 1.23,-0.6 2.13,-1c0.46,-0.2 1.84,-0.79 2.72,-1.2c0.43,-0.2 1.29,-0.61 2.14,-1.06c0.43,-0.23 1.77,-0.96 2.23,-1.23c0.95,-0.55 1.44,-0.85 2.42,-1.48c0.5,-0.32 1.5,-1 2.49,-1.72c0.5,-0.36 0.99,-0.74 1.48,-1.12c0.97,-0.74 1.43,-1.12 2.35,-1.83c0.88,-0.68 1.31,-1.01 2.15,-1.65c0.82,-0.62 1.22,-0.92 2.42,-1.82c0.4,-0.3 1.2,-0.9 2,-1.46c0.4,-0.28 1.59,-1.08 2.4,-1.55c0.4,-0.23 1.2,-0.67 2,-1.08c1.2,-0.61 1.6,-0.8 2.4,-1.2c0.8,-0.4 1.6,-0.8 2.8,-1.4c0.4,-0.2 1.21,-0.6 2.02,-1.04c0.84,-0.46 1.28,-0.71 2.6,-1.6c0.47,-0.32 0.94,-0.67 1.94,-1.38c0.52,-0.37 1.05,-0.74 1.61,-1.1c1.15,-0.73 2.39,-1.4 3.04,-1.72c0.65,-0.32 1.31,-0.62 1.98,-0.91c0.66,-0.29 1.33,-0.57 2.65,-1.08c1.28,-0.49 1.91,-0.71 2.53,-0.94c0.62,-0.23 1.23,-0.44 2.43,-0.91c1.21,-0.47 1.8,-0.73 2.4,-1c1.18,-0.53 1.76,-0.8 2.33,-1.06c0.56,-0.25 2.14,-0.93 2.63,-1.12c0.92,-0.35 1.8,-0.61 2.63,-0.89c1.21,-0.41 1.61,-0.56 2.41,-0.91c0.82,-0.35 1.65,-0.75 2.08,-0.94c1.33,-0.61 2.27,-1 2.75,-1.2c0.97,-0.4 1.47,-0.6 2.96,-1.2c0.5,-0.2 1.5,-0.6 2,-0.8c1,-0.4 1.5,-0.6 3,-1.2c0.5,-0.2 1.5,-0.6 2.01,-0.8c0.51,-0.2 1.55,-0.6 2.07,-0.8c1.63,-0.61 2.2,-0.8 2.78,-1c1.18,-0.39 1.78,-0.57 2.4,-0.75c0.62,-0.18 1.9,-0.5 3.22,-0.77c0.67,-0.14 1.35,-0.25 2.04,-0.36c0.69,-0.11 1.38,-0.22 3.48,-0.52c0.7,-0.1 1.4,-0.2 2.09,-0.3c0.69,-0.1 1.37,-0.2 2.04,-0.3c1.3,-0.2 2.54,-0.4 3.13,-0.5c1.13,-0.2 1.68,-0.3 2.76,-0.54c0.53,-0.12 2.15,-0.53 2.71,-0.69c0.56,-0.16 1.7,-0.5 2.28,-0.66c0.57,-0.16 1.71,-0.48 2.83,-0.69c1.07,-0.19 1.59,-0.24 2.58,-0.29c0.91,-0.05 2.08,-0.03 2.73,-0.04c0.81,-0.01 1.54,-0.05 2.54,-0.28c0.82,-0.19 1.62,-0.49 2.63,-0.63c0.83,-0.12 1.93,-0.09 2.79,-0.09c0.77,0 1.66,-0.01 2.6,0.01c0.7,0.02 1.43,0.03 2.82,0.27c0.67,0.12 1.34,0.31 2.05,0.43c1.17,0.2 2.04,0.23 2.95,0.28c0.93,0.05 1.4,0.05 2.76,0.22c0.86,0.11 1.66,0.28 2.4,0.43c1.27,0.24 2.07,0.28 2.77,0.46c1,0.26 1.79,0.75 2.36,1.08c0.59,0.33 1.78,0.94 2.37,1.17c0.8,0.31 1.85,0.6 2.79,0.65c0.8,0.04 1.55,0 2.35,0c1.23,0 2.08,0 3.08,0c0.77,0 1.73,-0.09 2.49,0.09c0.98,0.23 1.68,0.66 2.48,1.31c0.68,0.55 1.14,1.16 1.97,1.6c0.66,0.35 1.51,0.6 2.67,1.17c0.61,0.3 1.21,0.64 2.04,1.24c0.81,0.57 1.5,1.2 1.96,1.57c0.67,0.55 1.68,1.14 2.24,1.4c0.86,0.39 1.77,0.77 2.67,1.29c0.64,0.37 1.3,0.8 2.42,1.51c0.41,0.26 1.29,0.79 1.76,1.06c0.99,0.56 1.53,0.83 2.08,1.09c1.15,0.54 2.39,1 3.03,1.22c0.64,0.22 1.29,0.43 1.94,0.61c1.28,0.37 2.52,0.68 3.11,0.83c1.13,0.27 1.68,0.39 2.22,0.52c1.07,0.25 1.61,0.37 3.24,0.82c0.56,0.16 1.13,0.33 2.26,0.68c0.56,0.17 1.65,0.52 2.69,0.83c0.96,0.29 1.43,0.41 2.33,0.67c0.91,0.25 1.37,0.37 2.84,0.82c0.53,0.16 1.6,0.51 2.14,0.7c1.06,0.37 1.58,0.55 2.96,1.18c0.42,0.19 1.2,0.61 2.01,1c0.87,0.41 1.88,0.81 2.46,1c1.26,0.42 1.93,0.6 2.61,0.8c0.69,0.2 1.38,0.39 2.04,0.6c1.86,0.58 2.4,0.79 2.91,1c0.97,0.4 1.87,0.85 2.3,1.08c1.35,0.72 1.8,1 2.75,1.53c0.47,0.27 1.42,0.79 1.89,1.02c1.35,0.66 2.22,0.96 2.63,1.1c1.13,0.38 2.13,0.66 2.94,0.97c0.67,0.26 1.68,0.51 2.4,0.87c0.85,0.43 1.36,1.06 1.8,1.43c0.98,0.82 1.55,1.17 2.3,1.8c0.7,0.58 1.33,1.42 1.82,2c0.7,0.83 1.19,1.2 1.94,1.76c0.91,0.68 1.36,1.19 2.25,1.67c0.71,0.38 1.48,0.74 2.06,1.21c0.7,0.57 1.58,1.17 2.24,1.56c0.69,0.41 1.41,0.76 2.36,1.4c0.84,0.56 1.27,1 1.93,1.51c0.97,0.76 1.6,0.95 2.64,1.43c0.74,0.34 1.24,0.95 2.08,1.27c0.81,0.31 1.31,1.26 0.51,1.61c-0.79,0.35 -1.83,0.17 -2.46,0.17c-0.82,0 -1.57,0 -3.12,0c-0.65,0 -1.35,0 -2.1,0c-0.79,0 -1.62,0 -2.48,0c-0.88,0 -2.67,0 -3.57,0c-0.9,0 -1.78,0 -2.66,0c-0.86,0 -1.7,0 -2.51,0c-0.79,0 -2.26,0 -2.94,0c-0.65,0 -1.26,0 -1.85,0c-1.13,0 -1.67,0 -2.21,0c-1.64,0 -2.2,0 -3.35,0c-0.57,0 -1.15,0 -2.29,0c-1.12,0 -2.2,0 -2.72,0c-1.02,0 -2,0 -2.48,0c-1.37,0 -2.24,0 -3.11,0c-0.89,0 -1.35,0 -2.82,0c-0.53,0 -1.66,0 -2.26,0c-0.63,0 -1.28,0 -3.4,0c-0.76,0 -1.55,0 -2.36,0c-0.82,0 -1.64,0 -2.47,0c-0.82,0 -1.62,0 -3.18,0c-0.74,0 -1.44,0 -2.13,0c-0.66,0 -1.31,0 -2.56,0c-0.61,0 -1.81,0 -3.01,0c-0.6,0 -1.19,0 -2.37,0c-0.58,0 -2.27,0 -2.81,0c-1.05,0 -1.55,0 -2.5,0c-0.86,0 -1.95,0 -2.82,0c-0.74,0 -1.98,0 -2.8,0c-0.55,0 -1.82,-0.03 -2.5,0.02c-1.17,0.09 -1.97,0.33 -2.56,0.5c-0.66,0.18 -1.77,0.49 -2.61,0.68c-0.89,0.21 -1.82,0.4 -2.28,0.5c-1.38,0.3 -2.26,0.5 -3.1,0.7c-0.8,0.2 -1.56,0.39 -2.63,0.7c-0.67,0.19 -1.61,0.49 -2.22,0.61c-1.2,0.25 -1.82,0.26 -2.82,0.28c-1.12,0.02 -1.96,0 -2.86,0.02c-0.47,0.01 -1.44,0.04 -1.93,0.07c-1.5,0.11 -2.49,0.27 -2.98,0.35c-0.95,0.16 -1.85,0.35 -3.08,0.66c-0.74,0.19 -1.42,0.4 -2.09,0.6c-1.02,0.3 -2.11,0.6 -2.87,0.8c-0.78,0.2 -1.98,0.5 -2.38,0.6c-0.8,0.2 -1.6,0.4 -2.4,0.54c-1.2,0.22 -2,0.28 -2.82,0.33c-0.85,0.06 -1.75,0.1 -2.71,0.19c-1.04,0.1 -1.58,0.18 -2.69,0.35c-0.57,0.09 -1.7,0.28 -2.81,0.48c-0.55,0.1 -1.61,0.3 -2.63,0.5c-0.5,0.1 -1.46,0.3 -2.38,0.5c-0.88,0.2 -1.74,0.4 -2.59,0.56c-0.86,0.16 -2.2,0.32 -2.66,0.35c-0.97,0.07 -1.47,0.08 -2.53,0.14c-0.55,0.03 -2.32,0.17 -2.95,0.23c-0.64,0.07 -1.29,0.14 -2.62,0.33c-0.67,0.09 -1.33,0.19 -2.65,0.39c-0.65,0.1 -1.93,0.3 -2.57,0.39c-0.66,0.09 -1.33,0.18 -2.02,0.25c-0.72,0.08 -2.24,0.2 -3.06,0.24c-0.85,0.04 -1.72,0.07 -2.61,0.09c-0.89,0.02 -1.77,0.03 -2.64,0.03c-0.85,0 -2.43,0 -3.16,0c-0.68,0 -1.33,0 -2.52,0c-0.57,0 -1.66,0 -2.75,0c-0.55,0 -1.69,0 -2.27,0.01c-1.17,0.02 -1.77,0.04 -2.37,0.07c-1.8,0.11 -2.4,0.2 -3,0.27c-1.2,0.14 -1.8,0.23 -2.4,0.29c-1.8,0.2 -2.4,0.24 -3,0.27c-1.18,0.06 -1.76,0.07 -2.33,0.07c-1.1,0.01 -2.14,0.01 -3.1,0.01c-0.9,0.01 -1.75,0.01 -2.57,0.08c-1.21,0.1 -2.01,0.27 -2.82,0.41c-0.84,0.15 -1.26,0.25 -2.6,0.38c-0.93,0.09 -1.86,0.12 -2.32,0.15c-0.89,0.05 -2.12,0.17 -3.17,0.4c-0.6,0.13 -1.75,0.5 -2.41,0.55c-0.98,0.08 -1.84,0.02 -2.48,0.02c-0.95,0 -2.14,0 -2.8,0c-0.97,0 -1.74,0 -2.6,0c-1.19,0 -1.78,0 -2.83,0c-0.96,0 -1.94,0 -2.77,0c-0.83,0 -1.72,-0.22 -2.64,0c-0.78,0.18 -1.45,0.94 -2.36,1c-0.8,0.05 -1.7,0.06 -2.5,0.5c-0.8,0.45 -1.68,0.65 -2.34,0.94c-0.78,0.34 -1.75,0.89 -2.36,1.13c-0.98,0.37 -1.82,0.42 -2.97,0.44c-0.79,0.01 -1.62,-0.04 -2.67,0.17c-0.73,0.14 -1.42,0.47 -2.5,0.83c-0.63,0.21 -1.31,0.41 -2.36,0.64c-0.97,0.21 -1.8,0.29 -2.52,0.38c-1.21,0.16 -1.74,0.34 -2.6,0.55c-1.18,0.28 -1.79,0.35 -2.71,0.43c-0.64,0.06 -2,0.22 -2.74,0.35c-0.76,0.14 -1.54,0.33 -2.74,0.48c-0.8,0.1 -1.63,0.14 -2.51,0.16c-0.46,0.01 -1.99,0.01 -2.56,0.01c-1.19,0 -1.81,0 -2.44,0c-0.62,0 -1.85,0 -3,0c-1.04,0 -1.52,-0.01 -2.42,0.02c-0.81,0.03 -2.26,0.19 -2.93,0.33c-0.64,0.14 -1.55,0.41 -2.76,0.56c-0.59,0.07 -1.44,0.08 -2.48,0.09c-0.92,0 -1.61,0 -2.61,0c-0.82,0 -1.63,0 -2.87,0c-0.71,0 -1.78,0 -2.42,0c-1.05,0 -1.78,0 -2.86,0c-0.68,0 -1.67,0 -2.32,0c-1.37,0 -2.1,0 -2.87,0c-0.78,0 -1.98,0 -2.78,0c-0.81,0 -1.63,0 -2.48,0c-0.88,0 -1.8,0 -2.77,0.01c-0.51,0.01 -1.56,0.04 -2.11,0.07c-1.77,0.11 -2.4,0.2 -3.03,0.27c-0.65,0.07 -1.94,0.22 -2.59,0.29c-0.64,0.07 -1.87,0.2 -3.04,0.27c-0.56,0.03 -1.67,0.07 -2.22,0.07c-0.55,0.01 -2.28,0.01 -2.89,0.01c-0.63,0 -1.92,0 -2.58,0c-0.66,0 -1.33,0 -2,0c-1.96,0 -2.6,0 -3.23,0c-1.24,0.01 -1.85,0.02 -2.45,0.05c-1.81,0.09 -2.4,0.16 -3,0.23c-0.6,0.07 -1.8,0.22 -2.4,0.29c-0.6,0.07 -2.4,0.26 -3,0.3c-0.6,0.04 -1.79,0.09 -2.38,0.1c-1.16,0.02 -1.74,0.02 -2.85,0.02c-1.08,0 -1.61,0 -2.65,0c-1.02,0 -1.52,0 -3.02,0c-0.5,0 -1.51,0 -2.02,0c-1.04,0 -2.65,0 -3.2,0c-0.56,0 -1.71,0 -2.3,0c-0.59,0 -1.78,0 -2.98,0c-0.6,0 -1.79,0 -2.38,0c-1.15,0 -1.71,0 -3.29,0c-0.49,0 -1.44,0 -2.4,0c-0.5,0 -1.56,0 -2.77,0c-0.67,0 -1.39,0 -2.15,0c-0.79,0 -1.6,0 -2.44,0c-0.85,0 -1.7,0 -3.42,0c-0.84,0 -1.68,0 -2.5,0c-0.81,0 -1.6,0 -2.38,0c-0.76,0 -1.51,0 -2.95,0c-0.69,0 -1.36,0 -2.65,0c-0.62,0 -1.23,0 -2.39,0c-1.12,0 -2.2,0 -2.73,0c-1.02,0 -1.52,0 -2.48,0c-1.37,0 -2.24,0 -3.11,0c-0.44,0 -1.35,0 -2.82,0c-0.53,0 -1.63,0 -2.2,0c-0.58,0 -1.76,0 -2.96,0c-0.6,0 -1.8,0 -2.4,0c-0.6,0 -1.8,0 -2.4,0c-1.2,0 -2.4,0 -3.01,0c-0.61,0 -1.86,0 -2.51,0c-0.66,0 -2.02,0 -2.73,0c-0.73,0 -2.21,0 -2.96,0c-0.75,0 -1.49,0 -2.23,0c-1.43,0 -2.13,0 -2.8,0c-1.31,0 -1.95,0 -2.58,0c-0.63,0 -2.55,0 -3.21,0c-0.67,0 -1.34,0 -2.04,0c-0.71,0 -1.43,0 -2.91,0c-1.56,0 -2.37,0 -3.2,0c-0.84,0 -1.69,0 -2.55,0c-0.86,0 -1.73,0 -2.6,0c-1.72,0 -2.56,0 -3.4,0c-0.83,0 -1.66,0 -2.48,0c-0.83,0 -1.65,0 -2.48,0c-1.68,0 -2.54,0 -3.41,0c-0.88,0 -1.78,0 -2.69,0c-0.94,0 -1.89,0 -2.87,0c-2.04,0 -3.11,0 -4.19,0c-1.11,0 -2.22,0 -3.35,0c-1.12,0 -2.24,0 -3.35,0c-2.15,0 -3.19,0 -4.19,0c-0.98,0 -1.94,0 -2.87,0c-0.92,0 -1.81,0 -2.69,0c-1.72,0 -2.57,0 -3.4,0c-0.83,0 -1.65,0 -2.46,0c-0.81,0 -1.62,0 -2.42,0c-1.6,0 -2.4,0 -3.2,0c-0.79,0 -1.56,0 -2.32,0c-0.74,0 -1.45,0 -2.14,0c-1.27,0 -1.86,0 -2.4,0c-0.52,0 -1.02,0 -1.5,0c-0.47,0 -0.94,0 -1.41,0c-0.97,0 -1.48,0 -2,0c-0.53,0 -1.07,0 -1.61,0c-0.53,0 -1.06,0 -1.57,0c-0.95,0 -1.39,0.01 -2.18,0c-0.69,-0.01 -1.6,-0.03 -2.59,-0.28c-0.69,-0.18 -1.85,-0.58 -2.66,-0.66c-0.63,-0.06 -1.36,-0.05 -2.69,-0.06c-0.52,0 -1.65,0 -2.26,-0.01c-0.62,-0.01 -1.88,-0.04 -2.51,-0.07c-1.23,-0.07 -2.4,-0.2 -2.96,-0.27c-0.56,-0.07 -1.66,-0.25 -2.21,-0.35c-1.73,-0.29 -2.34,-0.4 -2.96,-0.49c-0.64,-0.1 -1.93,-0.28 -2.58,-0.37c-0.64,-0.08 -1.28,-0.17 -3.11,-0.31c-0.57,-0.04 -1.66,-0.09 -2.18,-0.1c-1,-0.02 -2.4,-0.02 -2.84,-0.02c-0.87,0 -1.74,0 -2.63,0c-1.42,0 -1.93,0 -2.99,0c-0.53,0 -1.58,0 -2.08,0c-1.35,0 -2.08,0 -3.18,0c-0.84,0 -1.63,0 -2.68,0c-0.86,0 -1.73,0.01 -2.67,-0.17c-0.88,-0.16 -1.56,-0.35 -2.31,-0.48c-1.18,-0.21 -1.98,-0.27 -2.78,-0.33c-0.77,-0.05 -1.53,-0.06 -2.93,-0.31c-0.65,-0.12 -1.26,-0.34 -2.49,-0.55c-0.9,-0.15 -1.52,-0.15 -2.49,-0.25c-1.04,-0.11 -1.77,-0.27 -2.51,-0.42c-0.75,-0.15 -2.18,-0.39 -2.85,-0.44c-0.65,-0.05 -1.64,-0.06 -2.67,-0.06c-0.75,0 -1.56,0 -2.45,0c-0.48,0 -2.09,0 -2.68,0c-0.61,0 -1.87,-0.02 -2.51,-0.03c-0.64,-0.02 -2.51,-0.13 -3.1,-0.19c-0.57,-0.06 -1.65,-0.2 -2.16,-0.28c-0.96,-0.14 -2.25,-0.35 -3.01,-0.41c-0.97,-0.08 -1.72,-0.08 -2.8,-0.09c-0.88,0 -1.78,0 -2.54,0c-0.9,0 -1.7,0 -2.66,0c-0.79,0 -1.81,0 -2.76,0c-0.91,0 -1.7,0 -2.63,0c-0.94,0 -1.19,-0.78 -1.99,-1c-0.88,-0.24 -1.2,-0.8 -1.2,-1.7c0,-0.94 0.76,-1.25 1,-2c0.26,-0.82 0.82,-1.35 1,-2.1c0.21,-0.89 0.95,-1.17 1.8,-1.2c0.9,-0.03 1.66,-0.52 2.28,-1.08c0.66,-0.59 1.57,-0.88 2.26,-0.91c1.04,-0.05 1.99,-0.16 2.66,-0.36c0.75,-0.21 1.85,-0.58 2.68,-0.64c0.81,-0.06 1.67,-0.01 2.6,-0.01c1.05,0 1.93,0 2.81,0c0.9,0 1.82,-0.15 1.9,-1c0.08,-0.8 -0.01,-1.7 0,-2.6c0.01,-0.88 0.82,-1.33 1,-2.01c0.22,-0.84 -0.4,-1.5 -1.2,-1.11c-0.87,0.43 -1.5,0.71 -2.44,0.72c-0.88,0 -1.77,0.09 -2.38,0.57c-0.62,0.5 -1.64,0.26 -2.5,0.45c-0.83,0.18 -1.64,0.87 -2.46,0.96c-0.9,0.09 -1.09,0.78 -2.02,1.02c-0.82,0.21 -0.68,1.14 -1.17,1.83c-0.5,0.72 -1.16,1.2 -1.55,1.97c-0.4,0.79 -0.87,1.24 -0.12,1.2c0.72,-0.04 1.68,-0.4 2.35,-0.8c0.75,-0.45 1.58,-1.09 2.48,-1.2c0.8,-0.1 1.49,-0.52 2.3,-0.94c0.7,-0.36 1.14,-1.04 2,-1.06c0.9,-0.02 1.8,0 2.61,-0.29l0.09,-0.81l0.06,-0.9l0.82,-0.23" fill="none" id="svg_1" stroke="#000000" stroke-width="5"/>
 </g>
</svg>